<?xml version="1.0" encoding="UTF-8" standalone="no"?>
<svg
   xmlns:dc="http://purl.org/dc/elements/1.1/"
   xmlns:cc="http://creativecommons.org/ns#"
   xmlns:rdf="http://www.w3.org/1999/02/22-rdf-syntax-ns#"
   xmlns:svg="http://www.w3.org/2000/svg"
   xmlns="http://www.w3.org/2000/svg"
   xmlns:sodipodi="http://sodipodi.sourceforge.net/DTD/sodipodi-0.dtd"
   xmlns:inkscape="http://www.inkscape.org/namespaces/inkscape"
   inkscape:version="1.0 (1.0+r73+1)"
   sodipodi:docname="dr.svg"
   id="svg8"
   version="1.1"
   viewBox="0 0 210 297"
   height="297mm"
   width="210mm">
  <defs
     id="defs2">
    <rect
       id="rect12"
       height="144.1371"
       width="287.72482"
       y="1.5824118"
       x="-3.7568673" />
    <rect
       x="-3.7568674"
       y="1.5824118"
       width="287.72482"
       height="144.1371"
       id="rect12-9" />
    <rect
       x="-3.7568674"
       y="1.5824118"
       width="287.72482"
       height="144.1371"
       id="rect848" />
  </defs>
  <sodipodi:namedview
     inkscape:window-maximized="1"
     inkscape:window-y="0"
     inkscape:window-x="0"
     inkscape:window-height="743"
     inkscape:window-width="1366"
     showgrid="false"
     inkscape:document-rotation="0"
     inkscape:current-layer="layer1"
     inkscape:document-units="mm"
     inkscape:cy="92.183786"
     inkscape:cx="301.02623"
     inkscape:zoom="1"
     inkscape:pageshadow="2"
     inkscape:pageopacity="0.0"
     borderopacity="1.0"
     bordercolor="#666666"
     pagecolor="#ffffff"
     id="base" />
  <metadata
     id="metadata5">
    <rdf:RDF>
      <cc:Work
         rdf:about="">
        <dc:format>image/svg+xml</dc:format>
        <dc:type
           rdf:resource="http://purl.org/dc/dcmitype/StillImage" />
      </cc:Work>
    </rdf:RDF>
  </metadata>
  <g
     id="layer1"
     inkscape:groupmode="layer"
     inkscape:label="Layer 1">
    <path
       transform="scale(0.26458333)"
       id="path876"
       d="M 15.62465,71.151382 V 27.772048 h 8.675866 8.675867 V 71.151382 114.53072 H 24.300516 15.62465 Z"
       style="fill:#ffcd50;fill-opacity:0;stroke:#170000;stroke-width:0.0119239;stroke-linecap:square;stroke-miterlimit:4;stroke-dasharray:none;stroke-opacity:1;paint-order:markers stroke fill" />
    <path
       transform="scale(0.26458333)"
       id="path878"
       d="M 40.337725,87.069473 V 59.608231 l 4.206846,4.182173 4.206846,4.182173 4.469021,-4.445805 4.46902,-4.445805 v 27.724875 27.724878 h -8.675866 -8.675867 z"
       style="fill:#ffcd50;fill-opacity:0;stroke:#170000;stroke-width:0.0119239;stroke-linecap:square;stroke-miterlimit:4;stroke-dasharray:none;stroke-opacity:1;paint-order:markers stroke fill" />
    <path
       transform="scale(0.26458333)"
       id="path880"
       d="M 44.664361,54.972051 40.337725,50.622822 V 39.197435 27.772048 h 8.675867 8.675866 v 11.447979 11.447978 l -4.349231,4.326638 -4.34923,4.326637 z"
       style="fill:#ffcd50;fill-opacity:0;stroke:#170000;stroke-width:0.0119239;stroke-linecap:square;stroke-miterlimit:4;stroke-dasharray:none;stroke-opacity:1;paint-order:markers stroke fill" />
    <path
       transform="scale(0.26458333)"
       id="path882"
       d="M 65.0508,71.151382 V 27.772048 h 8.76173 8.76173 l -0.348179,25.633243 c -0.191499,14.098283 -0.348445,33.618984 -0.348769,43.379334 l -5.88e-4,17.746095 H 73.463762 65.0508 Z"
       style="fill:#ffcd50;fill-opacity:0;stroke:#170000;stroke-width:0.0119239;stroke-linecap:square;stroke-miterlimit:4;stroke-dasharray:none;stroke-opacity:1;paint-order:markers stroke fill" />
    <path
       transform="scale(0.26458333)"
       id="path884"
       d="m 113.05778,89.160378 c 0.31277,-0.759201 19.53652,-44.212907 23.20348,-52.449558 1.35187,-3.036554 2.63979,-5.703393 2.86205,-5.92631 0.32895,-0.329935 25.27827,54.996339 26.20597,58.112963 0.25831,0.867771 -1.22982,0.920168 -26.13418,0.920168 -20.92035,0 -26.35182,-0.136585 -26.13732,-0.657263 z"
       style="fill:#ffcd50;fill-opacity:0;stroke:#170000;stroke-width:0.0119239;stroke-linecap:square;stroke-miterlimit:4;stroke-dasharray:none;stroke-opacity:1;paint-order:markers stroke fill" />
    <path
       transform="scale(0.26458333)"
       id="path886"
       d="m 103.43494,114.15683 c 0,-0.20563 1.57449,-4.11176 3.49886,-8.68028 l 3.49886,-8.306396 28.89702,0.135867 28.89702,0.135866 3.84677,8.544413 3.84678,8.54442 h -36.24266 c -19.93346,0 -36.24265,-0.16825 -36.24265,-0.37389 z"
       style="fill:#ffcd50;fill-opacity:0;stroke:#170000;stroke-width:0.0119239;stroke-linecap:square;stroke-miterlimit:4;stroke-dasharray:none;stroke-opacity:1;paint-order:markers stroke fill" />
    <path
       transform="scale(0.26458333)"
       id="path888"
       d="M 275.37484,84.822445 V 55.114174 h 12.88235 12.88235 v 29.708271 29.708275 h -12.88235 -12.88235 z"
       style="fill:#ffcd50;fill-opacity:0;stroke:#170000;stroke-width:0.0119239;stroke-linecap:square;stroke-miterlimit:4;stroke-dasharray:none;stroke-opacity:1;paint-order:markers stroke fill" />
    <path
       transform="scale(0.26458333)"
       id="path890"
       d="m 255.65696,111.26513 c -2.60276,-1.43875 -10.36188,-5.80652 -17.2425,-9.70617 l -12.51021,-7.090261 -16.59204,9.505191 c -9.12562,5.22787 -16.68729,9.50521 -16.8037,9.50521 -0.11642,0 -0.21166,-19.072788 -0.21166,-42.383974 0,-36.588156 0.10309,-42.34441 0.75388,-42.094679 0.41463,0.15911 7.88737,4.443487 16.60609,9.520838 8.71871,5.077351 16.02865,9.231547 16.24429,9.231547 0.21565,0 7.94539,-4.240008 17.17721,-9.42224 l 16.78513,-9.422239 0.33432,42.416824 c 0.18387,23.329254 0.30218,42.448103 0.2629,42.486343 -0.0393,0.0382 -2.20095,-1.10764 -4.80371,-2.54639 z"
       style="fill:#ffcd50;fill-opacity:0;stroke:#170000;stroke-width:0.0119239;stroke-linecap:square;stroke-miterlimit:4;stroke-dasharray:none;stroke-opacity:1;paint-order:markers stroke fill" />
    <path
       transform="scale(0.26458333)"
       id="path892"
       d="m 275.37484,37.76244 v -9.990392 h 12.88235 12.88235 v 9.990392 9.990392 h -12.88235 -12.88235 z"
       style="fill:#ffcd50;fill-opacity:0;stroke:#170000;stroke-width:0.0119239;stroke-linecap:square;stroke-miterlimit:4;stroke-dasharray:none;stroke-opacity:1;paint-order:markers stroke fill" />
    <path
       transform="scale(0.26458333)"
       id="path894"
       d="M 315.86222,71.151382 V 27.772048 h 8.67587 8.67587 v 43.379334 43.379338 h -8.67587 -8.67587 z"
       style="fill:#ffcd50;fill-opacity:0;stroke:#170000;stroke-width:0.0119239;stroke-linecap:square;stroke-miterlimit:4;stroke-dasharray:none;stroke-opacity:1;paint-order:markers stroke fill" />
    <path
       transform="scale(0.26458333)"
       id="path896"
       d="m 358.17186,86.925685 c 9e-5,-15.327364 0.0672,-21.521848 0.14923,-13.765519 0.082,7.756329 0.0819,20.296901 -1.6e-4,27.867934 -0.0821,7.57104 -0.14915,1.22495 -0.14907,-14.102415 z"
       style="fill:#ffcd50;fill-opacity:0;stroke:#170000;stroke-width:0.0119239;stroke-linecap:square;stroke-miterlimit:4;stroke-dasharray:none;stroke-opacity:1;paint-order:markers stroke fill" />
    <path
       transform="scale(0.26458333)"
       id="path898"
       d="m 344.88144,54.922065 -4.30614,-4.41169 V 39.141211 27.772048 h 8.67586 8.67587 V 39.491089 51.21013 l -2.4976,2.352823 c -1.37368,1.294053 -3.34005,3.121868 -4.36972,4.061812 l -1.87213,1.708989 z"
       style="fill:#ffcd50;fill-opacity:0;stroke:#170000;stroke-width:0.0119239;stroke-linecap:square;stroke-miterlimit:4;stroke-dasharray:none;stroke-opacity:1;paint-order:markers stroke fill" />
    <path
       transform="scale(0.26458333)"
       id="path900"
       d="m 382.7905,52.222218 c 0.004,-1.445978 0.10606,-1.975107 0.22692,-1.175843 0.12086,0.799264 0.11763,1.982337 -0.007,2.62905 -0.12481,0.646714 -0.22369,-0.0072 -0.21974,-1.453207 z"
       style="fill:#ffcd50;fill-opacity:0;stroke:#170000;stroke-width:0.0119239;stroke-linecap:square;stroke-miterlimit:4;stroke-dasharray:none;stroke-opacity:1;paint-order:markers stroke fill" />
    <path
       transform="scale(0.26458333)"
       id="path902"
       d="M 365.28837,71.151382 V 27.772048 h 8.67587 8.67587 v 43.379334 43.379338 h -8.67587 -8.67587 z"
       style="fill:#ffcd50;fill-opacity:0;stroke:#170000;stroke-width:0.0119239;stroke-linecap:square;stroke-miterlimit:4;stroke-dasharray:none;stroke-opacity:1;paint-order:markers stroke fill" />
    <path
       transform="scale(0.26458333)"
       id="path904"
       d="M 340.5753,87.085444 V 59.640172 l 1.97179,1.805585 c 1.08448,0.993072 3.09739,2.86602 4.47314,4.162107 l 2.50135,2.356521 4.20272,-4.178077 4.20273,-4.178077 v 27.461242 27.461247 h -8.67587 -8.67586 z"
       style="fill:#ffcd50;fill-opacity:0;stroke:#170000;stroke-width:0.0119239;stroke-linecap:square;stroke-miterlimit:4;stroke-dasharray:none;stroke-opacity:1;paint-order:markers stroke fill" />
    <path
       transform="scale(0.26458333)"
       id="path906"
       d="m 422.60072,68.653784 c 5.14011,-11.640121 11.1085,-25.130405 13.26309,-29.978408 l 3.91743,-8.814552 13.04724,29.584051 c 7.17597,16.271228 13.14404,29.761512 13.26237,29.978408 0.11832,0.216897 -11.72133,0.394358 -26.31034,0.394358 h -26.52546 z"
       style="fill:#ffcd50;fill-opacity:0;stroke:#170000;stroke-width:0.0119239;stroke-linecap:square;stroke-miterlimit:4;stroke-dasharray:none;stroke-opacity:1;paint-order:markers stroke fill" />
    <path
       transform="scale(0.26458333)"
       id="path912"
       d="m 404.56951,112.29602 c 0.48867,-1.22908 2.0929,-5.07406 3.56496,-8.54441 l 2.67646,-6.309723 28.90331,-0.135845 28.90331,-0.135844 3.67692,8.221532 c 2.02232,4.52184 3.7558,8.42796 3.8522,8.68026 0.0987,0.25836 -15.68903,0.45873 -36.14519,0.45873 h -36.32045 z"
       style="fill:#ffcd50;fill-opacity:0;stroke:#170000;stroke-width:0.0119239;stroke-linecap:square;stroke-miterlimit:4;stroke-dasharray:none;stroke-opacity:1;paint-order:markers stroke fill" />
    <path
       transform="scale(0.26458333)"
       id="path914"
       d="m 493.06023,72.115367 c 0,-23.039246 0.0832,-41.790949 0.18497,-41.670451 0.10173,0.120498 14.56829,18.556715 32.14791,40.969371 17.57962,22.412656 32.32147,41.164363 32.75966,41.670453 0.75764,0.87504 -0.81911,0.92017 -32.14791,0.92017 h -32.94463 z"
       style="fill:#ffcd50;fill-opacity:0;stroke:#170000;stroke-width:0.0119239;stroke-linecap:square;stroke-miterlimit:4;stroke-dasharray:none;stroke-opacity:1;paint-order:markers stroke fill" />
    <path
       transform="scale(0.26458333)"
       id="path916"
       d="m 641.37502,59.320654 28.29059,-28.13084 0.30582,9.462129 0.30581,9.462131 -18.87272,18.66871 -18.87271,18.668711 h -9.72369 -9.72368 z"
       style="fill:#ffcd50;fill-opacity:0;stroke:#170000;stroke-width:0.0238477;stroke-linecap:square;stroke-miterlimit:4;stroke-dasharray:none;stroke-opacity:1;paint-order:markers stroke fill" />
    <path
       transform="scale(0.26458333)"
       id="path918"
       d="m 610.95015,113.04092 c -0.38559,-0.38559 -0.70108,-4.64465 -0.70108,-9.46458 v -8.763503 h 29.29888 29.29889 l 0.66315,5.521003 c 0.36473,3.03656 0.66726,7.29562 0.67229,9.46459 l 0.009,3.94357 h -29.27009 c -16.09856,0 -29.58559,-0.31549 -29.97118,-0.70108 z"
       style="fill:#ffcd50;fill-opacity:0;stroke:#170000;stroke-width:0.0238477;stroke-linecap:square;stroke-miterlimit:4;stroke-dasharray:none;stroke-opacity:1;paint-order:markers stroke fill" />
    <path
       transform="scale(0.26458333)"
       id="path920"
       d="M 570.2875,84.822445 V 55.902889 h 12.61944 12.61945 V 84.822445 113.742 H 582.90694 570.2875 Z"
       style="fill:#ffcd50;fill-opacity:0;stroke:#170000;stroke-width:0.0238477;stroke-linecap:square;stroke-miterlimit:4;stroke-dasharray:none;stroke-opacity:1;paint-order:markers stroke fill" />
    <path
       transform="scale(0.26458333)"
       id="path922"
       d="m 570.2875,37.499535 v -9.990392 h 12.61944 12.61945 v 9.990392 9.990392 H 582.90694 570.2875 Z"
       style="fill:#ffcd50;fill-opacity:0;stroke:#170000;stroke-width:0.0238477;stroke-linecap:square;stroke-miterlimit:4;stroke-dasharray:none;stroke-opacity:1;paint-order:markers stroke fill" />
    <path
       transform="scale(0.26458333)"
       id="path924"
       d="m 611.30069,38.551155 v -9.990392 h 24.25987 24.25988 l -9.27429,9.989866 -9.27428,9.989866 -14.98559,5.26e-4 -14.98559,5.26e-4 z"
       style="fill:#ffcd50;fill-opacity:0;stroke:#170000;stroke-width:0.0238477;stroke-linecap:square;stroke-miterlimit:4;stroke-dasharray:none;stroke-opacity:1;paint-order:markers stroke fill" />
    <path
       transform="scale(0.26458333)"
       id="path926"
       d="M 696.48193,71.677192 V 28.560763 h 8.41296 8.41296 v 43.116429 43.116428 h -8.41296 -8.41296 z"
       style="fill:#ffcd50;fill-opacity:0;stroke:#170000;stroke-width:0.0238477;stroke-linecap:square;stroke-miterlimit:4;stroke-dasharray:none;stroke-opacity:1;paint-order:markers stroke fill" />
    <path
       transform="scale(0.26458333)"
       id="path928"
       d="m 725.09444,54.548364 -4.42525,-4.508997 V 39.300064 28.560763 h 8.41296 8.41297 v 11.354398 11.354398 l -3.98772,3.893901 -3.98772,3.8939 z"
       style="fill:#ffcd50;fill-opacity:0;stroke:#170000;stroke-width:0.0238477;stroke-linecap:square;stroke-miterlimit:4;stroke-dasharray:none;stroke-opacity:1;paint-order:markers stroke fill" />
    <path
       transform="scale(0.26458333)"
       id="path930"
       d="M 720.66919,87.238071 V 59.682522 l 3.98792,3.894094 c 2.19335,2.141753 4.41866,3.894095 4.94513,3.894095 0.52647,0 2.51774,-1.512519 4.42505,-3.361153 l 3.46783,-3.361154 v 27.022608 27.022608 h -8.41297 -8.41296 z"
       style="fill:#ffcd50;fill-opacity:0;stroke:#170000;stroke-width:0.0238477;stroke-linecap:square;stroke-miterlimit:4;stroke-dasharray:none;stroke-opacity:1;paint-order:markers stroke fill" />
    <path
       transform="scale(0.26458333)"
       id="path932"
       d="M 745.90808,71.677192 V 28.560763 h 8.41296 8.41296 v 43.116429 43.116428 h -8.41296 -8.41296 z"
       style="fill:#ffcd50;fill-opacity:0;stroke:#170000;stroke-width:0.0238477;stroke-linecap:square;stroke-miterlimit:4;stroke-dasharray:none;stroke-opacity:1;paint-order:markers stroke fill" />
    <path
       transform="scale(0.26458333)"
       id="path938"
       d="M 16.013898,70.990964 V 27.861713 h 8.179685 8.179686 v 43.129251 43.129256 h -8.179686 -8.179685 z"
       style="fill:#ffcd50;fill-opacity:0;stroke:#170000;stroke-width:1.8897638;stroke-linecap:square;stroke-miterlimit:4;stroke-dasharray:none;stroke-opacity:1;paint-order:markers stroke fill" />
    <path
       transform="scale(0.26458333)"
       id="path940"
       d="m 40.552955,87.189835 v -26.93038 l 4.090917,4.0401 4.090917,4.0401 4.460573,-4.414028 4.460572,-4.414028 v 27.304308 27.304313 h -8.55149 -8.551489 z"
       style="fill:#ffcd50;fill-opacity:0;stroke:#170000;stroke-width:1.8897638;stroke-linecap:square;stroke-miterlimit:4;stroke-dasharray:none;stroke-opacity:1;paint-order:markers stroke fill" />
    <path
       transform="scale(0.26458333)"
       id="path942"
       d="M 44.396681,54.322266 40.552955,50.294899 V 39.078306 27.861713 h 8.551489 8.55149 v 10.991492 10.991492 l -4.297307,4.252467 c -2.36352,2.338858 -4.482013,4.252468 -4.707764,4.252468 -0.225751,0 -2.140133,-1.812315 -4.254182,-4.027366 z"
       style="fill:#ffcd50;fill-opacity:0;stroke:#170000;stroke-width:1.8897638;stroke-linecap:square;stroke-miterlimit:4;stroke-dasharray:none;stroke-opacity:1;paint-order:markers stroke fill" />
    <path
       transform="scale(0.26458333)"
       id="path944"
       d="M 65.092012,70.990964 V 27.861713 H 73.7633 82.434589 L 81.944357,49.61224 c -0.269628,11.962791 -0.490849,31.370954 -0.491603,43.129252 l -0.0014,21.378728 h -8.179686 -8.179685 z"
       style="fill:#ffcd50;fill-opacity:0;stroke:#170000;stroke-width:1.8897638;stroke-linecap:square;stroke-miterlimit:4;stroke-dasharray:none;stroke-opacity:1;paint-order:markers stroke fill" />
    <path
       transform="scale(0.26458333)"
       id="path946"
       d="m 114.98714,88.898657 c -0.83623,-0.529448 1.34761,-6.070536 11.05885,-28.059807 6.65547,-15.070043 12.33348,-27.834701 12.61781,-28.365906 0.53988,-1.00865 3.72547,5.653577 18.03188,37.71125 6.15346,13.788595 7.87109,18.301818 7.14146,18.76471 -1.30396,0.827248 -47.53916,0.779692 -48.85,-0.05025 z"
       style="fill:#ffcd50;fill-opacity:0;stroke:#170000;stroke-width:1.8897638;stroke-linecap:square;stroke-miterlimit:4;stroke-dasharray:none;stroke-opacity:1;paint-order:markers stroke fill" />
    <path
       transform="scale(0.26458333)"
       id="path948"
       d="m 142.28728,114.30737 c 6.26229,-0.12451 16.301,-0.12424 22.30824,6e-4 6.00723,0.12485 0.88354,0.22672 -11.38599,0.22639 -12.26952,-3.3e-4 -17.18454,-0.10248 -10.92225,-0.22699 z"
       style="fill:#ffcd50;fill-opacity:0;stroke:#170000;stroke-width:0.0177333;stroke-linecap:square;stroke-miterlimit:4;stroke-dasharray:none;stroke-opacity:1;paint-order:markers stroke fill" />
    <path
       transform="scale(0.26458333)"
       id="path950"
       d="M 192.99255,71.088367 V 29.455963 l 16.09555,9.24158 c 8.85255,5.082869 16.46524,9.236088 16.91708,9.229376 0.45184,-0.0067 7.9912,-4.019044 16.75413,-8.916294 8.76293,-4.897249 16.12464,-8.712321 16.35937,-8.477938 0.60166,0.600789 0.98757,82.100313 0.38875,82.100313 -0.27019,0 -7.95573,-4.20477 -17.07897,-9.34392 l -16.58772,-9.343924 -15.86639,9.067214 c -8.72651,4.98697 -16.11735,9.21148 -16.42409,9.38781 -0.30674,0.17633 -0.55771,-18.41399 -0.55771,-41.311813 z"
       style="fill:#ffcd50;fill-opacity:0;stroke:#170000;stroke-width:1.8897638;stroke-linecap:square;stroke-miterlimit:4;stroke-dasharray:none;stroke-opacity:1;paint-order:markers stroke fill" />
    <path
       sodipodi:nodetypes="ccscsscccc"
       transform="scale(0.26458333)"
       id="path952"
       d="m 107.13485,106.20249 c 1.87213,-4.60629 3.29781,-9.032336 3.29781,-9.032336 4.6785,-0.08696 17.42345,0.590691 28.69637,0.590691 h 28.67694 l 3.0109,6.506565 c 1.65599,3.57862 3.29921,7.25947 3.65159,8.17969 l 0.64069,1.67312 h -35.64576 -35.64577 z"
       style="fill:#ffcd50;fill-opacity:0;stroke:#170000;stroke-width:1.88976;stroke-linecap:square;stroke-miterlimit:4;stroke-dasharray:none;stroke-opacity:1;paint-order:markers stroke fill" />
    <path
       transform="scale(0.26458333)"
       id="path954"
       d="M 275.53302,84.747708 V 55.375201 h 12.64133 12.64133 v 29.372507 29.372512 h -12.64133 -12.64133 z"
       style="fill:#ffcd50;fill-opacity:0;stroke:#170000;stroke-width:1.8897638;stroke-linecap:square;stroke-miterlimit:4;stroke-dasharray:none;stroke-opacity:1;paint-order:markers stroke fill" />
    <path
       transform="scale(0.26458333)"
       id="path956"
       d="m 275.53302,37.528614 v -9.666901 h 12.64133 12.64133 v 9.666901 9.666901 h -12.64133 -12.64133 z"
       style="fill:#ffcd50;fill-opacity:0;stroke:#170000;stroke-width:1.8897638;stroke-linecap:square;stroke-miterlimit:4;stroke-dasharray:none;stroke-opacity:1;paint-order:markers stroke fill" />
    <path
       transform="scale(0.26458333)"
       id="path958"
       d="M 316.43144,70.990964 V 27.861713 h 8.17969 8.17969 v 43.129251 43.129256 h -8.17969 -8.17969 z"
       style="fill:#ffcd50;fill-opacity:0;stroke:#170000;stroke-width:1.8897638;stroke-linecap:square;stroke-miterlimit:4;stroke-dasharray:none;stroke-opacity:1;paint-order:markers stroke fill" />
    <path
       transform="scale(0.26458333)"
       id="path962"
       d="M 344.84904,54.422308 340.9705,50.494984 V 39.178349 27.861713 h 8.17969 8.17968 v 11.807395 11.807396 l -4.02254,3.436564 c -2.2124,1.89011 -4.14791,3.436564 -4.30114,3.436564 -0.15324,0 -2.02395,-1.767296 -4.15715,-3.927324 z"
       style="fill:#ffcd50;fill-opacity:0;stroke:#170000;stroke-width:1.8897638;stroke-linecap:square;stroke-miterlimit:4;stroke-dasharray:none;stroke-opacity:1;paint-order:markers stroke fill" />
    <path
       transform="scale(0.26458333)"
       id="path964"
       d="m 340.9705,87.72214 c 0,-14.518942 0.26495,-26.398077 0.58878,-26.398077 0.32383,0 2.06662,1.505806 3.87287,3.346235 1.80624,1.840429 3.62119,3.346235 4.03322,3.346235 0.41203,0 2.3501,-1.576882 4.30682,-3.504183 l 3.55768,-3.504184 v 26.556025 26.556029 h -8.17968 -8.17969 z"
       style="fill:#ffcd50;fill-opacity:0;stroke:#170000;stroke-width:1.8897638;stroke-linecap:square;stroke-miterlimit:4;stroke-dasharray:none;stroke-opacity:1;paint-order:markers stroke fill" />
    <path
       transform="scale(0.26458333)"
       id="path966"
       d="M 365.50956,70.990964 V 27.861713 h 8.55149 8.55149 v 43.129251 43.129256 h -8.55149 -8.55149 z"
       style="fill:#ffcd50;fill-opacity:0;stroke:#170000;stroke-width:1.8897638;stroke-linecap:square;stroke-miterlimit:4;stroke-dasharray:none;stroke-opacity:1;paint-order:markers stroke fill" />
    <path
       sodipodi:nodetypes="cssscc"
       transform="scale(0.26458333)"
       id="path968"
       d="m 440.00912,32.165475 c 0.2909,0.291328 6.07049,13.05634 12.84352,28.366691 9.14213,20.665646 12.07332,27.990186 11.37798,28.431612 -0.51515,0.327034 -12.05865,0.599732 -25.65222,0.605994 l -24.71558,0.01139 z"
       style="fill:#ffcd50;fill-opacity:0;stroke:#170000;stroke-width:1.88976;stroke-linecap:square;stroke-miterlimit:4;stroke-dasharray:none;stroke-opacity:1;paint-order:markers stroke fill" />
    <path
       transform="scale(0.26458333)"
       id="path970"
       d="m 407.56942,106.24311 c 1.81512,-4.33241 3.30021,-8.013265 3.30021,-8.179685 0,-0.166419 12.96666,-0.296584 28.81481,-0.289254 l 28.8148,0.01333 3.34623,7.519949 c 1.84043,4.13598 3.45778,7.81084 3.59411,8.16636 0.13827,0.3606 -15.54071,0.64641 -35.46125,0.64641 H 404.2692 Z"
       style="fill:#ffcd50;fill-opacity:0;stroke:#170000;stroke-width:1.8897638;stroke-linecap:square;stroke-miterlimit:4;stroke-dasharray:none;stroke-opacity:1;paint-order:markers stroke fill" />
    <path
       transform="scale(0.26458333)"
       id="path972"
       d="m 493.4101,72.354245 c 0,-22.562299 0.11345,-40.882936 0.2521,-40.712526 2.883,3.543183 62.81851,80.153911 63.21716,80.805381 0.4516,0.73802 -6.02741,0.92951 -31.45024,0.92951 H 493.4101 Z"
       style="fill:#ffcd50;fill-opacity:0;stroke:#170000;stroke-width:1.8897638;stroke-linecap:square;stroke-miterlimit:4;stroke-dasharray:none;stroke-opacity:1;paint-order:markers stroke fill" />
    <path
       transform="scale(0.26458333)"
       id="path974"
       d="M 570.74531,84.747708 V 56.118809 h 12.26953 12.26953 v 28.628899 28.628902 h -12.26953 -12.26953 z"
       style="fill:#ffcd50;fill-opacity:0;stroke:#170000;stroke-width:1.8897638;stroke-linecap:square;stroke-miterlimit:4;stroke-dasharray:none;stroke-opacity:1;paint-order:markers stroke fill" />
    <path
       transform="scale(0.26458333)"
       id="path976"
       d="m 570.74531,37.528614 v -9.666901 h 12.26953 12.26953 v 9.666901 9.666901 h -12.26953 -12.26953 z"
       style="fill:#ffcd50;fill-opacity:0;stroke:#170000;stroke-width:1.8897638;stroke-linecap:square;stroke-miterlimit:4;stroke-dasharray:none;stroke-opacity:1;paint-order:markers stroke fill" />
    <path
       transform="scale(0.26458333)"
       id="path978"
       d="M 611.64374,38.272222 V 28.60532 h 23.46753 c 18.57219,0 23.35258,0.193897 22.91646,0.92951 -0.30308,0.51123 -4.21645,4.861336 -8.69637,9.666901 l -8.14531,8.737392 h -14.77116 -14.77115 z"
       style="fill:#ffcd50;fill-opacity:0;stroke:#170000;stroke-width:1.8897638;stroke-linecap:square;stroke-miterlimit:4;stroke-dasharray:none;stroke-opacity:1;paint-order:markers stroke fill" />
    <path
       transform="scale(0.26458333)"
       id="path980"
       d="m 641.72002,59.852203 27.55332,-27.498133 0.21085,8.691713 0.21084,8.691713 -18.79557,18.80642 -18.79557,18.80642 h -8.96859 -8.96859 z"
       style="fill:#ffcd50;fill-opacity:0;stroke:#170000;stroke-width:1.8897638;stroke-linecap:square;stroke-miterlimit:4;stroke-dasharray:none;stroke-opacity:1;paint-order:markers stroke fill" />
    <path
       sodipodi:nodetypes="cccccscccc"
       transform="scale(0.26458333)"
       id="path982"
       d="m 610.95015,113.04092 -0.05,-9.00652 v -8.504379 h 28.89317 28.89318 l 0.47404,5.019349 c 0.26073,2.76065 0.47643,6.77613 0.47934,8.9233 l 0.005,3.90394 -26.95578,-0.11901 z"
       style="fill:#ffcd50;fill-opacity:0;stroke:#170000;stroke-width:1.88976;stroke-linecap:square;stroke-miterlimit:4;stroke-dasharray:none;stroke-opacity:1;paint-order:markers stroke fill" />
    <path
       transform="scale(0.26458333)"
       id="path986"
       d="M 697.15863,71.362768 V 28.60532 h 7.80788 7.80789 v 42.757448 42.757452 h -7.80789 -7.80788 z"
       style="fill:#ffcd50;fill-opacity:0;stroke:#170000;stroke-width:1.8897638;stroke-linecap:square;stroke-miterlimit:4;stroke-dasharray:none;stroke-opacity:1;paint-order:markers stroke fill" />
    <path
       sodipodi:nodetypes="scsscccccs"
       transform="scale(0.26458333)"
       id="path988"
       d="m 720.95408,87.72214 c 0,-14.518942 0.59774,-26.398077 0.59774,-26.398077 0,0 1.7509,1.198647 3.16033,2.663661 4.32479,4.495353 4.818,4.554398 8.94873,1.071314 l 3.65257,-3.079894 v 26.070535 26.070541 h -8.17968 -8.17969 z"
       style="fill:#ffcd50;fill-opacity:0;stroke:#170000;stroke-width:1.88976;stroke-linecap:square;stroke-miterlimit:4;stroke-dasharray:none;stroke-opacity:1;paint-order:markers stroke fill" />
    <path
       transform="scale(0.26458333)"
       id="path990"
       d="m 725.2065,54.052272 -4.25242,-4.297255 V 39.180169 28.60532 h 8.17969 8.17968 v 10.993617 10.993616 l -3.92727,3.878487 -3.92727,3.878486 z"
       style="fill:#ffcd50;fill-opacity:0;stroke:#170000;stroke-width:1.8897638;stroke-linecap:square;stroke-miterlimit:4;stroke-dasharray:none;stroke-opacity:1;paint-order:markers stroke fill" />
    <path
       transform="scale(0.26458333)"
       id="path992"
       d="M 746.23675,71.362768 V 28.60532 h 8.17968 8.17969 v 42.757448 42.757452 h -8.17969 -8.17968 z"
       style="fill:#ffcd50;fill-opacity:0;stroke:#170000;stroke-width:1.8897638;stroke-linecap:square;stroke-miterlimit:4;stroke-dasharray:none;stroke-opacity:1;paint-order:markers stroke fill" />
  </g>
</svg>
