<?xml version="1.0" encoding="UTF-8" standalone="no"?>
<svg
   xmlns:dc="http://purl.org/dc/elements/1.1/"
   xmlns:cc="http://creativecommons.org/ns#"
   xmlns:rdf="http://www.w3.org/1999/02/22-rdf-syntax-ns#"
   xmlns:svg="http://www.w3.org/2000/svg"
   xmlns="http://www.w3.org/2000/svg"
   xmlns:sodipodi="http://sodipodi.sourceforge.net/DTD/sodipodi-0.dtd"
   xmlns:inkscape="http://www.inkscape.org/namespaces/inkscape"
   sodipodi:docname="p1.svg"
   inkscape:version="1.0 (1.0+r73+1)"
   id="svg8"
   version="1.1"
   viewBox="0 0 210 100"
   height="100mm"
   width="210mm">
  <defs
     id="defs2">
    <marker
       inkscape:isstock="true"
       style="overflow:visible"
       id="EmptyDiamondSstart"
       refX="0.0"
       refY="0.0"
       orient="auto"
       inkscape:stockid="EmptyDiamondSstart">
      <path
         transform="scale(0.2) translate(6,0)"
         style="fill-rule:evenodd;fill:#003399;stroke:#000000;stroke-width:1pt;stroke-opacity:1;fill-opacity:0.712143"
         d="M 0,-7.0710768 L -7.0710894,0 L 0,7.0710589 L 7.0710462,0 L 0,-7.0710768 z "
         id="path1032" />
    </marker>
    <marker
       inkscape:isstock="true"
       style="overflow:visible"
       id="DotL"
       refX="0.0"
       refY="0.0"
       orient="auto"
       inkscape:stockid="DotL">
      <path
         transform="scale(0.8) translate(7.4, 1)"
         style="fill-rule:evenodd;stroke:#000000;stroke-width:1pt;stroke-opacity:1;fill:#003399;fill-opacity:0.712143"
         d="M -2.5,-1.0 C -2.5,1.7600000 -4.7400000,4.0 -7.5,4.0 C -10.260000,4.0 -12.5,1.7600000 -12.5,-1.0 C -12.5,-3.7600000 -10.260000,-6.0 -7.5,-6.0 C -4.7400000,-6.0 -2.5,-3.7600000 -2.5,-1.0 z "
         id="path972" />
    </marker>
    <marker
       inkscape:isstock="true"
       style="overflow:visible"
       id="Arrow1Mstart"
       refX="0.0"
       refY="0.0"
       orient="auto"
       inkscape:stockid="Arrow1Mstart">
      <path
         transform="scale(0.4) translate(10,0)"
         style="fill-rule:evenodd;stroke:#000000;stroke-width:1pt;stroke-opacity:1;fill:#003399;fill-opacity:0.712143"
         d="M 0.0,0.0 L 5.0,-5.0 L -12.5,0.0 L 5.0,5.0 L 0.0,0.0 z "
         id="path917" />
    </marker>
    <clipPath
       id="clipPath2318"
       clipPathUnits="userSpaceOnUse">
      <path
         d="M 295.57409,202.66386 V 492.78538 H 469.13216 V 202.66386 Z m 12.91073,3.09984 c 4.77343,0.0692 8.96853,2.32085 13.168,4.30676 0.38417,0.14358 0.77142,0.2798 1.15291,0.43036 0.6201,0.24473 1.22631,0.52488 1.85165,0.7559 0.7478,0.27627 1.6486,0.42163 2.36141,0.71303 0.75868,0.31016 1.50142,0.65811 2.25184,0.98776 -0.17763,-0.11434 -0.74216,-0.37649 -0.53358,-0.34302 0.72003,0.11556 3.45423,1.07479 4.12254,1.2879 0.21436,0.0684 0.42624,0.16856 0.65109,0.17627 0.1027,0.003 -0.17328,-0.10915 -0.26043,-0.16357 0.43227,-0.25074 1.16118,-0.22742 1.71031,-0.27155 12.24717,-0.98415 13.1758,11.10356 1.20691,12.4645 0.55057,0.35058 1.09816,0.73265 1.64838,1.17197 1.46706,1.17135 2.81609,2.49065 4.10984,3.85099 1.40006,1.47212 2.62214,3.10253 3.95897,4.6323 6.44376,7.37371 2.5643,2.74069 6.54589,7.5654 0.0492,0.0312 0.10035,0.0589 0.14927,0.0905 1.69121,1.09408 7.6428,6.88347 8.97876,8.47694 2.94028,3.50701 5.87006,7.50888 8.56269,11.52279 2.89385,-3.19203 6.26798,-5.78337 10.18567,-7.63051 1.48855,-0.70184 2.78524,-0.99703 3.86051,-0.98459 4.65951,0.0539 5.14764,5.88039 -1.05763,9.39483 -2.70528,1.53217 -5.0756,3.48734 -7.06358,5.87891 -0.37258,0.44821 -0.66752,0.83785 -0.956,1.22278 1.70161,2.90132 3.29674,5.86554 4.95944,8.78978 1.17982,2.09398 4.17007,7.66963 6.04882,10.37147 0.046,0.0661 0.28056,0.10832 0.23821,0.0397 -0.13058,-0.21163 -0.73781,-0.66114 -0.53358,-0.51929 2.72968,1.89595 2.03774,1.48807 4.23053,4.37821 1.79442,2.80744 3.08602,5.83663 4.03679,9.01528 0.19367,0.6475 0.40384,1.29195 0.54311,1.95329 0.21478,1.02001 0.26765,1.32104 0.3589,1.7929 2.3449,1.87193 3.57491,5.66141 4.50843,8.46423 0.60083,0.26785 1.19037,0.5677 1.79607,0.82101 0.55741,0.94781 1.32699,1.80023 1.6722,2.84417 0.32106,0.97085 0.2583,2.02907 0.29696,3.05221 0.39722,-0.0574 0.78823,-0.12816 1.16721,-0.22073 0.025,0.0614 0.0532,0.12167 0.0794,0.18262 0.0439,-0.0714 0.10865,-0.13295 0.1604,-0.0953 2.41975,1.76207 3.63542,3.14526 5.00231,5.96307 0.62848,1.29561 0.91482,2.73166 1.37206,4.09714 0.83514,3.27915 0.58347,6.55158 0.19057,9.85694 -0.22644,1.90492 -0.2282,2.51667 -1.17356,4.41792 -0.33256,0.66882 -0.84046,1.23425 -1.26091,1.85165 -1.35533,1.67077 -2.5758,2.77804 -4.79109,3.44445 -1.59252,0.47905 -4.11903,0.13075 -5.67883,0.0397 -1.21874,-0.0712 -2.43967,-0.12562 -3.65883,-0.18899 -0.90971,-0.0379 -1.81847,-0.0637 -2.72825,-0.0826 -1.90855,0.32859 -3.98238,0.23324 -5.87891,0.2255 -1.4554,-0.11452 -2.97138,-0.002 -4.43697,-0.19533 -2.24011,0.0347 -4.4808,0.0702 -6.72057,0.0762 -0.24831,-0.004 -0.49904,-0.0485 -0.74479,-0.0127 -0.067,0.01 -0.079,0.12413 -0.14451,0.14133 -0.45278,0.11868 -0.92291,0.15804 -1.38001,0.25885 -0.40115,0.0885 -0.79043,0.23398 -1.1942,0.30967 -1.31077,0.24577 -2.63536,0.40305 -3.94944,0.63045 -2.13256,0.40282 -4.27263,0.82224 -6.4522,0.83055 -1.14437,0.004 -2.28776,-0.16403 -3.43016,-0.23821 -0.0882,0.0573 -0.15627,0.0983 -0.24614,0.15722 -0.21578,0.14132 -0.46974,-0.0512 -0.72732,-0.19374 -0.6839,-0.019 -1.31075,-0.093 -1.88341,-0.21122 -0.83757,-0.0824 -1.67057,-0.20544 -2.50592,-0.30807 -1.36161,-0.34163 -2.74179,-0.61968 -4.08602,-1.02429 -2.89203,-0.87048 -4.7456,-1.59696 -7.28274,-3.21736 -0.59927,-0.38274 -1.14429,-0.84131 -1.69284,-1.29584 -2.03331,0.13338 -4.03062,-0.41714 -6.0266,-0.81625 -0.51621,0.007 -1.03266,0.0115 -1.54834,-0.01 -0.62318,-0.0248 -1.63862,0.39841 -1.86117,-0.18421 -0.0771,-0.20186 -0.14694,-0.40809 -0.21915,-0.61299 -0.91943,0.27105 -1.81316,0.51081 -2.88864,0.6241 -0.80963,0.0854 -1.629,0.0344 -2.4424,0.0683 -1.1502,0.0479 -2.29772,0.16775 -3.44763,0.22708 -2.37296,-0.004 -4.74426,-0.066 -7.11758,-0.046 -0.97397,-0.63846 -2.25768,-0.38489 -3.3317,-0.64315 -0.55295,-0.13297 -1.08959,-0.32313 -1.63726,-0.47641 -0.40794,-0.11417 -0.39869,-0.11595 -0.24773,-0.0159 -0.36213,-0.0754 -0.63313,-0.13632 -0.93853,-0.20009 0.30498,3.47797 -3.48433,3.94908 -4.48938,0.008 -0.15195,-0.59595 -0.31767,-1.18722 -0.45577,-1.78654 -0.18267,-0.79273 -0.32959,-1.5944 -0.50658,-2.38841 -0.92513,-4.15037 -0.0772,-0.24671 -0.84166,-3.43015 -0.13081,-0.54472 -0.22495,-1.09662 -0.33825,-1.64521 -0.11649,-0.71602 -0.36473,-1.40298 -0.50341,-2.11368 -0.0833,-0.42711 -0.12928,-0.86097 -0.19533,-1.29107 -0.0796,-0.51832 -0.14599,-1.01056 -0.18104,-1.51817 -0.33566,-0.0847 -0.35727,-0.42699 0.19533,-1.24184 0.27446,-0.40472 0.41848,-0.62768 0.45101,-0.65904 0.0542,-0.0523 -0.20076,0.42877 -0.67651,1.49276 0.002,0.13998 0.0208,0.2721 0.0302,0.40812 1.11945,0.28253 5.72942,-2.28569 4.45127,0.13023 0.0558,0.43075 0.10865,0.86216 0.17786,1.28948 0.81013,-0.64764 1.60641,-1.31392 2.4694,-1.88818 0.88583,-0.58947 3.20809,-1.192 4.24799,-1.18308 0.0736,6.3e-4 0.22318,0.006 0.32396,0.007 0.86203,-0.24345 1.74597,-0.48888 2.59962,-0.62092 v -0.85436 c 0,-0.76905 0.0182,-1.53863 0.008,-2.30742 -0.0971,-0.0832 -0.16798,-0.1453 -0.31602,-0.26838 -0.66726,-1.03943 -1.43751,-2.01894 -2.00252,-3.11731 -1.12834,-2.19348 -1.49059,-4.98093 -1.41335,-7.41772 0.0166,-0.5234 0.1332,-1.03849 0.20009,-1.55787 0.21022,-1.63221 0.70075,-2.28931 1.34825,-2.33759 2.3887,-0.17811 6.91939,7.93033 7.46853,6.01072 -0.0747,-0.39287 -0.1484,-0.78892 -0.16992,-1.20055 -0.0965,-1.84637 -0.0139,-1.2635 0.0635,-0.81308 0.17972,1.0448 0.20228,1.67843 0.10639,2.01363 0.10739,0.56476 0.21791,1.12248 0.18898,1.70556 1.5879,1.39557 1.99529,1.56378 3.0792,4.12412 0.44089,1.04148 0.30491,4.30704 0.30491,5.16589 v 1.16561 c 2.60227,0.40627 5.17765,1.01812 7.74167,1.61663 4.26851,0.99635 6.51918,1.58685 10.70813,2.64725 1.78679,0.52825 3.54988,1.15016 5.27546,1.86118 1.18867,-0.002 2.37647,-0.005 3.56514,-0.008 1.16509,-0.003 2.33018,-0.007 3.49527,-0.01 1.43793,0.005 2.87143,0.0328 4.30834,0.0842 0.34123,0.0123 0.68937,-0.0302 1.02587,0.0159 1.09585,-0.6428 3.01929,-0.49164 4.15907,-0.29697 2.32625,0.39736 4.5915,1.14108 6.80156,1.98187 0.76897,0.0384 1.53766,0.0847 2.30742,0.10799 3.22577,-0.0703 6.46018,0.004 9.65843,0.478 0.52552,0.0779 2.30202,0.44157 3.23165,0.63045 -0.0311,-0.0435 0.24975,-0.0446 0.36049,-0.0556 0.51727,-0.0511 1.03534,-0.10075 1.55469,-0.12227 1.0649,-0.044 2.99875,-0.0168 4.05425,-0.01 0.20653,-0.2347 0.58665,-0.20366 1.0084,-0.12704 -0.88567,-1.47051 -1.54022,-3.26801 -2.19625,-4.96262 -0.5024,-0.41511 -1.00668,-0.82812 -1.51022,-1.24184 -3.63001,-3.77458 -6.43601,-6.5504 -7.60669,-11.83245 -0.23876,-1.07737 -0.20537,-2.19963 -0.21121,-3.30312 -0.003,-0.5861 0.0236,-0.95721 0.0556,-1.2339 -0.0227,-0.0498 -0.0456,-0.0995 -0.0683,-0.14929 -2.63696,-5.79292 -5.81971,-13.51135 -9.36465,-19.10407 -1.0773,-1.6996 -2.38166,-3.24972 -3.70013,-4.77046 -0.11215,-0.0843 -0.21475,-0.17277 -0.32872,-0.25726 -0.15942,-0.13877 -0.32523,-0.27116 -0.48752,-0.40654 -0.70574,-0.42972 -1.5398,-0.79222 -1.71191,-1.38953 -0.79999,-0.64072 -1.59017,-1.29243 -2.31695,-2.01998 0.38338,-0.31131 0.74725,-0.65988 1.10687,-1.01952 -0.0648,-0.0939 -0.13003,-0.18838 -0.19692,-0.2795 -0.066,-0.0899 -0.42298,-0.63281 -0.67174,-1.00205 -1.80431,1.6476 -3.62953,3.27385 -5.37868,4.9785 -6.28581,6.12585 -12.47966,-0.24632 -6.17905,-6.35691 2.16063,-2.09547 4.42159,-4.08621 6.62211,-6.13935 -0.41305,-0.63812 -0.82277,-1.27792 -1.24661,-1.90882 -0.63395,-0.94365 -1.17927,-1.71992 -1.70396,-2.45987 -0.91552,-1.06636 -1.8111,-2.15028 -2.66155,-3.27453 -4.12057,-5.44721 -5.24574,-7.9116 -8.15783,-13.38253 -6.49521,-9.01283 -13.80369,-17.46815 -20.71276,-26.14384 -0.25089,-0.3327 -3.77638,-4.62129 -2.87752,-5.37391 0.61337,-0.51359 1.11265,-0.90655 1.62298,-1.31172 -2.10838,-0.63289 -4.12796,-1.60658 -6.18382,-2.34712 -1.14529,-0.54554 -2.34069,-1.01533 -3.46509,-1.60074 -0.36649,-0.19081 -0.6838,-0.4709 -1.06081,-0.63998 -2.03446,-0.91238 -2.43032,-0.7017 -4.97214,-0.97188 -12.34314,-1.312 -10.70741,-12.60302 1.70396,-12.42321 z m 50.83781,57.66478 c 0.0891,0.14907 0.17198,0.30182 0.26361,0.44941 0.62493,1.0066 1.62632,2.44126 2.62185,3.85417 0.16287,0.18702 0.32429,0.37533 0.48911,0.56057 -1.09814,-1.63745 -2.21878,-3.27256 -3.37457,-4.86415 z m 35.63553,44.15059 c -0.0342,-0.1307 -0.0188,-0.0727 0.1207,0.49228 0.008,0.004 0.008,-0.002 0.0159,0.002 -0.0515,-0.18067 -0.11034,-0.39353 -0.13657,-0.49388 z m 0.14134,0.17786 c 0.0103,0.0576 0.0577,0.27904 0.0651,0.32395 0.0652,-0.0145 0.015,-0.15322 -0.0651,-0.32395 z m -0.88137,15.66597 c 0.042,0.0923 0.085,0.18405 0.12705,0.27632 0.002,-0.0699 0.006,-0.13975 0.008,-0.20962 -0.0458,-0.0217 -0.0906,-0.0437 -0.13499,-0.0667 z m -81.98237,14.89261 c -0.0861,-7.8e-4 -0.17627,0.0263 -0.2652,0.0428 -6e-4,0.0222 7.2e-4,0.0446 0,0.0667 0.14091,-0.0455 0.36893,-0.10865 0.2652,-0.10958 z m -1.26566,0.0746 c -0.0527,0.006 -0.10613,0.006 -0.15881,0.0127 -0.13586,0.0175 -0.0355,0.0242 0.12387,0.0286 0.008,-0.01 0.0264,-0.0311 0.0349,-0.0413 z m 74.94261,0.0603 c -0.0955,-0.0146 -0.19786,-8.2e-4 -0.29697,0.005 0.004,7.8e-4 0.0121,0.002 0.0159,0.003 0.0935,-0.002 0.37352,0.006 0.28108,-0.008 z m -77.5057,7.16839 c 0.0925,0.0192 0.15196,0.0315 0.24932,0.0524 0.0805,0.0172 -0.16212,-0.0306 -0.24297,-0.046 -0.006,-0.003 -0.004,-0.004 -0.006,-0.007 z m 22.55805,0.59075 c -0.0553,6.6e-4 -0.043,0.0575 -0.0159,0.21439 0.18034,-0.0457 0.409,-0.0481 0.64157,-0.0477 -0.35545,-0.0866 -0.55912,-0.16755 -0.62569,-0.16674 z"
         style="fill:#ff0000;fill-opacity:1;fill-rule:nonzero;stroke:none;stroke-width:0.813075"
         id="path2320" />
    </clipPath>
  </defs>
  <sodipodi:namedview
     inkscape:snap-page="false"
     inkscape:snap-grids="true"
     inkscape:window-maximized="1"
     inkscape:window-y="0"
     inkscape:window-x="0"
     inkscape:window-height="743"
     inkscape:window-width="1366"
     inkscape:showpageshadow="false"
     showborder="true"
     borderlayer="false"
     inkscape:pagecheckerboard="true"
     showgrid="false"
     inkscape:document-rotation="0"
     inkscape:current-layer="layer1"
     inkscape:document-units="mm"
     inkscape:cy="187.03574"
     inkscape:cx="121.546"
     inkscape:zoom="1.1672141"
     inkscape:pageshadow="2"
     inkscape:pageopacity="0.0"
     borderopacity="0.49803922"
     bordercolor="#000000"
     pagecolor="#ffffff"
     id="base" />
  <metadata
     id="metadata5">
    <rdf:RDF>
      <cc:Work
         rdf:about="">
        <dc:format>image/svg+xml</dc:format>
        <dc:type
           rdf:resource="http://purl.org/dc/dcmitype/StillImage" />
        <dc:title />
      </cc:Work>
    </rdf:RDF>
  </metadata>
  <g
     id="layer1"
     inkscape:groupmode="layer"
     inkscape:label="Layer 1">
    <path
       transform="scale(0.26458333)"
       id="path2083"
       d=""
       style="fill:#003399;fill-opacity:0.712143;stroke:#000000;stroke-width:5.95189;stroke-linecap:square;stroke-linejoin:miter;stroke-miterlimit:83.5;stroke-dasharray:none;stroke-dashoffset:0;stroke-opacity:1;paint-order:markers stroke fill" />
    <path
       transform="scale(0.26458333)"
       id="path2085"
       d=""
       style="fill:#003399;fill-opacity:0.712143;stroke:#000000;stroke-width:5.95189;stroke-linecap:square;stroke-linejoin:miter;stroke-miterlimit:83.5;stroke-dasharray:none;stroke-dashoffset:0;stroke-opacity:1;paint-order:markers stroke fill" />
    <path
       transform="scale(0.26458333)"
       id="path2087"
       d=""
       style="fill:#003399;fill-opacity:0.712143;stroke:#000000;stroke-width:5.95189;stroke-linecap:square;stroke-linejoin:miter;stroke-miterlimit:83.5;stroke-dasharray:none;stroke-dashoffset:0;stroke-opacity:1;paint-order:markers stroke fill" />
    <g
       transform="matrix(0.32321842,0,0,0.32321842,137.02403,-122.59838)"
       id="g1346"
       style="stroke-width:5;stroke-miterlimit:4;stroke-dasharray:none">
      <path
         id="path1340"
         d="m -356.94647,584.10446 80.87405,-194.72163 91.98549,198.69158 z"
         style="fill:none;stroke:#000000;stroke-width:5;stroke-linecap:butt;stroke-linejoin:miter;stroke-miterlimit:4;stroke-dasharray:none;stroke-opacity:1" />
      <path
         sodipodi:nodetypes="ccccc"
         id="path1342"
         d="m -370.30326,615.83733 -36.05533,69.40058 269.79393,-3.34505 -40.91255,-79.69716 z"
         style="fill:none;stroke:#000000;stroke-width:5;stroke-linecap:butt;stroke-linejoin:miter;stroke-miterlimit:4;stroke-dasharray:none;stroke-opacity:1" />
    </g>
  </g>
</svg>
