<?xml version="1.0" encoding="UTF-8" standalone="no"?>
<svg
   xmlns:dc="http://purl.org/dc/elements/1.1/"
   xmlns:cc="http://creativecommons.org/ns#"
   xmlns:rdf="http://www.w3.org/1999/02/22-rdf-syntax-ns#"
   xmlns:svg="http://www.w3.org/2000/svg"
   xmlns="http://www.w3.org/2000/svg"
   xmlns:sodipodi="http://sodipodi.sourceforge.net/DTD/sodipodi-0.dtd"
   xmlns:inkscape="http://www.inkscape.org/namespaces/inkscape"
   sodipodi:docname="pas1.svg"
   inkscape:version="1.0 (1.0+r73+1)"
   id="svg8"
   version="1.1"
   viewBox="0 0 210 100"
   height="100mm"
   width="210mm">
  <defs
     id="defs2" />
  <sodipodi:namedview
     inkscape:window-maximized="1"
     inkscape:window-y="0"
     inkscape:window-x="0"
     inkscape:window-height="743"
     inkscape:window-width="1366"
     inkscape:showpageshadow="false"
     showborder="true"
     borderlayer="false"
     inkscape:pagecheckerboard="true"
     showgrid="false"
     inkscape:document-rotation="0"
     inkscape:current-layer="g968"
     inkscape:document-units="mm"
     inkscape:cy="142.12103"
     inkscape:cx="410.37922"
     inkscape:zoom="0.8980437"
     inkscape:pageshadow="2"
     inkscape:pageopacity="0.0"
     borderopacity="0.49803922"
     bordercolor="#000000"
     pagecolor="#ffffff"
     id="base" />
  <metadata
     id="metadata5">
    <rdf:RDF>
      <cc:Work
         rdf:about="">
        <dc:format>image/svg+xml</dc:format>
        <dc:type
           rdf:resource="http://purl.org/dc/dcmitype/StillImage" />
        <dc:title />
      </cc:Work>
    </rdf:RDF>
  </metadata>
  <g
     id="layer1"
     inkscape:groupmode="layer"
     inkscape:label="Layer 1">
    <g
       style="fill:#ffffff;fill-opacity:1"
       id="g968"
       transform="matrix(0.3254109,0,0,0.3254109,-92.262855,-63.666997)">
      <path
         d="m 516.45069,406.11811 c 6.38447,-8.2773 10.63844,-17.91721 15.2977,-27.2171 4.93242,-9.47463 9.5069,-19.09104 13.42353,-29.02847 3.31158,-8.82743 5.98723,-17.8656 8.49503,-26.94768 1.34395,-5.99207 2.97799,-11.91303 4.91771,-17.73854 2.04821,-6.29547 4.28601,-12.53035 6.25186,-18.85048 1.26627,-5.7839 3.38659,-11.29522 5.35641,-16.85712 2.01097,-5.49404 3.74785,-11.07882 5.86621,-16.53516 1.75318,-4.32695 3.44668,-8.67873 5.58948,-12.83123 1.75493,-3.38657 3.47009,-6.7876 5.23018,-10.1725 2.00591,-2.8405 2.90176,-6.48542 5.54858,-8.8322 -10.65374,11.47657 1.5603,0.23729 -5.4332,3.16689 -0.20282,0.085 2.50548,9.41912 2.64637,9.92948 2.26906,7.35348 3.48236,14.94714 4.68905,22.52686 1.06492,7.89746 3.52473,15.44388 6.05015,22.96431 2.58892,7.83571 5.07375,15.71215 7.31046,23.65745 2.08561,8.51951 5.18705,16.69976 8.73551,24.70134 3.71605,7.50859 7.91337,14.76637 11.76705,22.20471 3.27845,6.07875 6.24684,12.31326 9.4115,18.45035 3.60473,6.62561 7.76867,12.94482 12.05134,19.14893 3.65038,5.79381 7.7242,9.87422 13.25089,13.79913 3.44623,2.37331 7.44159,3.71194 10.66239,6.419 0.21064,0.23379 0.44752,0.44638 0.63191,0.70138 0.57973,0.8018 -1.2128,-0.11744 -0.82418,-0.85894 2.64263,-5.0419 1.93151,-5.33971 3.77005,-4.2423 -4.6038,-0.78259 -8.95078,-2.84245 -13.39556,-4.28321 -6.80832,-1.72664 -13.77461,-2.82509 -20.72984,-3.78029 -8.17814,-1.02092 -16.43457,-0.8205 -24.65115,-0.56266 -9.6284,0.22924 -19.20886,1.30956 -28.74934,2.56363 -6.51264,1.19629 -13.09063,1.88246 -19.65986,2.65686 -4.24889,0.65747 -8.51953,1.06845 -12.81287,1.2591 -4.67519,0.14748 -9.35353,0.14486 -14.03054,0.14669 -4.34888,0 -8.69775,-0.0138 -13.04658,-0.0351 -2.59424,-0.13483 -5.23414,0.21818 -7.80515,-0.22217 -0.73827,-0.20489 -1.16642,-0.71964 -1.64563,-1.27484 0,0 -5.54175,5.88068 -5.54175,5.88068 v 0 c 1.19462,1.18084 2.3817,2.28206 4.01838,2.82863 2.90251,0.72901 5.83904,0.53526 8.81375,0.51258 4.35441,-0.0151 8.70881,-0.018 13.06322,-0.0119 4.73274,0.003 9.46613,0.0206 14.19789,-0.0922 4.44553,-0.13044 8.88031,-0.39709 13.26665,-1.18417 6.55789,-0.98504 13.20605,-1.39171 19.70607,-2.79193 9.38273,-1.35279 18.80287,-2.50537 28.29237,-2.72444 7.96216,-0.29068 15.94479,-0.40693 23.87962,0.47005 6.70012,0.81561 13.3721,1.90953 19.93887,3.48327 4.96705,1.53424 9.70994,3.75134 14.75862,4.98044 0.69738,0.0502 1.52881,0.5648 2.09211,0.1506 5.51373,-4.05429 5.38702,-6.12063 1.52654,-9.81305 -3.39294,-2.68261 -7.28279,-4.36534 -10.96955,-6.57038 -5.12476,-3.55298 -8.73066,-7.20587 -12.10259,-12.54558 -4.13018,-6.07867 -8.21079,-12.22201 -11.62754,-18.73724 -3.16659,-6.13698 -6.15556,-12.36456 -9.50534,-18.40635 -3.84887,-7.33311 -7.93957,-14.54353 -11.5519,-21.9983 -3.47165,-7.79338 -6.41035,-15.7888 -8.43774,-24.09129 -2.25536,-8.01921 -4.7293,-15.97941 -7.37934,-23.87653 -2.41816,-7.29543 -4.66561,-14.64228 -5.67632,-22.29129 -1.23753,-7.7445 -2.64975,-15.46637 -4.88981,-22.99541 -0.70848,-2.63504 -2.89722,-15.13051 -7.62212,-13.84053 -1.98371,0.54159 -3.00429,2.80857 -4.50641,4.21285 -1.9785,3.17205 -3.62691,6.53974 -5.47365,9.78851 -1.78755,3.41895 -3.4989,6.87668 -5.22827,10.32516 -1.96178,4.35359 -3.75592,8.77486 -5.45521,13.23761 -2.02792,5.51028 -3.80174,11.10799 -5.84792,16.61163 -2.037,5.59052 -3.78389,11.25916 -5.29839,17.01448 -2.07708,6.28664 -4.17359,12.56641 -6.27409,18.84537 -1.84838,5.91297 -3.44043,11.89302 -4.8129,17.93489 -2.42242,8.93053 -5.11069,17.7891 -8.48082,26.41462 -3.94462,9.78948 -8.60145,19.23826 -13.42764,28.62136 -2.34283,4.62455 -4.65931,9.26793 -7.16049,13.81001 -0.70522,1.28063 -1.42248,2.55508 -2.17107,3.81084 -0.6056,1.01592 -1.5902,1.85865 -1.8905,3.00263 -0.20412,0.77753 1.05362,-1.21436 1.58046,-1.82155 0,0 2.02735,7.82981 2.02735,7.82981 z"
         id="path930"
         style="opacity:1;fill:#ffffff;fill-opacity:1;stroke-width:0.264583" />
      <path
         d="m 506.13432,423.36797 c -2.31661,5.52905 -5.05958,10.88083 -7.56351,16.33508 -2.21126,5.57665 -5.62909,10.48223 -8.88918,15.46574 -2.15768,3.24723 -4.7683,6.15482 -6.76058,9.51143 -1.77369,2.45009 -3.28922,4.94858 -4.26133,7.81783 -1.10014,3.75568 -1.02989,5.78471 2.11415,8.38022 4.75515,2.01012 10.28063,1.31329 15.29398,0.89101 7.78983,-0.79711 15.59975,-1.36612 23.422,-1.71201 8.20166,-0.28101 16.39448,-0.76113 24.59503,-1.07868 7.73811,-0.31271 15.48294,-0.35274 23.22618,-0.35525 8.96851,0.003 17.93685,-0.0399 26.90527,-0.0718 10.2162,-0.009 20.43234,0.0304 30.64854,0.0387 9.56508,-0.0559 19.13001,-0.003 28.69504,0.0279 8.33924,-0.0188 16.67828,-0.0328 25.01739,0.0238 4.851,0.0752 9.70211,0.0415 14.55338,0.0492 5.33378,-0.14142 7.03765,0.056 9.64686,-6.34434 0.29105,-0.71392 -1.40544,-3.67207 -1.67417,-4.19013 -3.29145,-5.3232 -7.28528,-10.15021 -10.8063,-15.3245 -3.64662,-5.85698 -7.16624,-11.78788 -10.68366,-17.72248 -1.76718,-3.56174 -3.92163,-6.87999 -6.17202,-10.14836 -1.75583,-2.39279 -4.00172,-4.08752 -6.75076,-5.14869 -3.41464,-1.2637 -7.09272,-1.46775 -10.68518,-1.7984 -5.91007,-0.57054 -11.84724,-0.6333 -17.77912,-0.65929 -10.06129,0.16272 -20.11363,-0.0865 -30.16647,-0.46833 -8.96911,-0.35997 -17.94171,-0.51155 -26.90728,-0.95213 -8.66301,-0.4471 -17.32952,-0.74856 -26.00343,-0.83156 -8.8011,-0.0204 -17.60189,-0.11531 -26.40304,-0.10777 -5.79316,0.005 -11.58613,-0.0374 -17.3791,-0.0773 -2.17744,-0.005 -4.35486,-0.013 -6.5323,-0.0201 0,0 -2.16596,7.75981 -2.16596,7.75981 v 0 c 2.18199,-0.007 4.36396,-0.0167 6.54595,-0.023 5.80808,-0.045 11.61616,-0.0942 17.42446,-0.0927 8.7866,0.007 17.57357,-0.0854 26.35974,0.0473 8.61217,0.13103 17.2256,0.3034 25.82688,0.78034 8.99443,0.48898 17.99268,0.63706 26.99623,0.89974 10.08232,0.35856 20.15914,0.7166 30.25003,0.64746 5.79765,0.0768 11.60166,0.14036 17.38376,0.61492 3.20783,0.29144 6.50928,0.48583 9.58405,1.50866 1.87352,0.47476 3.20419,1.66253 4.33737,3.21495 2.1885,3.18227 4.26815,6.41445 6.06637,9.83853 3.61013,5.97977 7.22434,11.95673 10.91287,17.88848 3.37465,4.97038 7.24093,9.61586 10.20799,14.84273 0.13883,0.36245 0.32798,0.70942 0.41643,1.08733 0.0127,0.0536 -0.19912,0.0309 -0.1647,-0.0119 1.0931,-1.36551 2.10142,-2.8213 3.3845,-4.0101 0.16774,-0.15539 0.42365,0.47908 0.25725,0.6359 -0.37809,0.35634 -3.04001,0.47125 -3.18238,0.48307 -4.86042,0.008 -9.72069,-0.0259 -14.58087,0.0492 -8.34353,0.0563 -16.68698,0.0426 -25.03064,0.0238 -9.57006,0.0307 -19.14004,0.0839 -28.71018,0.0273 -10.22218,0.007 -20.4443,0.0443 -30.66645,0.0294 -8.96067,-0.0372 -17.92139,-0.0949 -26.8822,-0.0668 -7.79949,0.0429 -15.60224,0.003 -23.39832,0.26151 -8.19343,0.3922 -16.38236,0.96277 -24.58548,1.09173 -7.89609,0.29379 -15.76252,0.99817 -23.63298,1.68275 -4.04828,0.35417 -8.09953,0.53512 -12.14707,0.27966 0.004,0.82492 0.88627,-3.43826 1.01574,-2.88311 1.2251,-2.43266 2.88136,-4.60698 4.31268,-6.91922 2.23895,-3.15146 4.6065,-6.21335 6.66096,-9.49264 3.34338,-5.15308 6.42231,-10.45369 8.76837,-16.14864 2.55477,-5.50878 5.35123,-10.90012 7.7806,-16.46597 0,0 -8.04539,0.89001 -8.04539,0.89001 z"
         id="path932"
         style="opacity:1;fill:#ffffff;fill-opacity:1;stroke-width:0.264583" />
      <path
         d="m 735.78677,421.37187 c -0.21513,7.97795 0.71295,15.8456 2.18194,23.67026 1.22413,5.61067 1.98822,11.29662 2.37919,17.02183 0.21706,4.44926 0.19741,8.90628 0.1964,13.35964 0.0241,3.40103 -0.0642,7.44696 2.05023,10.36235 0.39529,0.54502 0.92252,0.98089 1.3838,1.47132 3.83709,2.91804 8.80046,2.40139 13.3569,2.3975 10.22395,0.005 20.44105,-0.0479 30.64524,-0.72549 10.17521,-0.89995 20.28944,-2.29677 30.30484,-4.2976 8.57573,-2.06632 17.25785,-3.3736 26.04648,-4.01751 6.94421,-0.31343 13.86769,-0.92358 20.81081,-1.25759 7.2182,-0.27499 14.44304,-0.272 21.66535,-0.2911 7.06268,-0.0698 14.11616,0.43926 21.16466,0.82696 3.26937,-0.19881 6.73044,0.86915 9.98955,0.27477 0.69443,-0.12666 1.35504,-0.39632 2.03256,-0.59447 1.46534,-2.03536 3.23339,-3.88387 4.39607,-6.10605 0.46805,-0.89456 0.27245,-2.00121 0.37151,-3.00593 0.43489,-4.41127 0.38655,-8.74118 0.16187,-13.16006 -0.60725,-6.98347 -2.03724,-13.83488 -3.49131,-20.67804 -1.29895,-5.94259 -2.51119,-11.91109 -3.55301,-17.90509 -1.04828,-5.25722 -2.46261,-7.31623 -7.69848,-8.86902 -9.7504,-1.26357 -19.63626,-1.15541 -29.45238,-1.31397 -14.45379,-0.21598 -28.90729,0.28098 -43.35796,0.54686 -11.09435,0.21985 -22.191,0.26422 -33.28718,0.28028 -7.66844,0.0238 -15.33673,-0.0209 -23.0048,-0.0905 -4.3601,0.0343 -8.66746,0.664 -12.93643,1.49609 -3.82609,0.89069 -7.69893,1.56104 -11.56547,2.24949 -3.43024,0.5139 -6.883,0.77359 -10.31272,1.30079 -2.07679,0.34335 -4.09101,0.96153 -6.14793,1.39872 0,0 -1.31247,7.9824 -1.31247,7.9824 v 0 c 2.04491,-0.32805 4.05641,-0.80385 6.02337,-1.45917 3.46337,-0.54782 6.90809,-1.03468 10.40604,-1.31649 3.933,-0.67638 7.86982,-1.36525 11.76157,-2.24028 3.91981,-0.94975 7.9197,-1.46444 11.94224,-1.74868 7.6927,-0.0626 15.38549,-0.10332 23.07844,-0.11285 11.13427,-0.0511 22.26871,-0.13163 33.40081,-0.3711 14.39585,-0.35854 28.79712,-0.94679 43.19897,-0.66207 9.44716,0.20217 18.91086,0.35401 28.31124,1.40031 3.5977,0.58137 2.94997,1.57665 3.82767,5.1069 1.1671,6.00687 2.39144,12.00389 3.70737,17.97976 1.42303,6.59559 2.65684,13.23261 3.1252,19.97589 0.14605,4.01603 0.27636,8.13056 -0.55723,12.09315 -0.14322,0.68085 -1.27334,2.22538 -0.61725,1.99387 1.28513,-0.45352 1.97318,-1.88034 2.95976,-2.82051 0.0148,0.23815 0.19764,0.53128 0.0447,0.71451 -0.41603,0.49847 -2.25711,0.29255 -2.50867,0.28813 -2.19673,-0.0386 -4.3929,-0.1043 -6.58836,-0.1883 -7.13391,-0.292 -14.26224,-0.83513 -21.40207,-0.87144 -7.28141,0.0206 -14.56246,0.10221 -21.84194,0.27604 -7.00124,0.22024 -13.96174,0.90483 -20.95383,1.27159 -9.0051,0.57748 -17.91806,1.74821 -26.67469,4.00304 -9.80995,2.05103 -19.7322,3.39836 -29.7068,4.3647 -10.06769,0.79002 -20.15654,0.94324 -30.25235,0.72618 -3.24475,-0.0626 -6.89613,0.30951 -10.00932,-0.75327 -1.99756,-1.73382 -1.3003,-6.39281 -1.47508,-8.69953 -0.003,-4.58078 0.0661,-9.17136 -0.3106,-13.7409 -0.56867,-5.84398 -1.46899,-11.64312 -2.72007,-17.38201 -1.36745,-7.59553 -2.14345,-15.23799 -1.62457,-22.96652 0,0 -7.56185,2.81223 -7.56185,2.81223 z"
         id="path934"
         style="opacity:1;fill:#ffffff;fill-opacity:1;stroke-width:0.264583" />
      <path
         d="m 736.90684,233.48317 c -0.46279,9.86496 -0.51772,19.74432 -0.61839,29.61811 -0.0594,11.1307 -0.15314,22.26116 -0.22844,33.39178 -0.0405,5.72204 -0.0563,11.44421 -0.0628,17.16638 0.40167,3.46649 -0.58383,7.36148 0.14174,10.78214 0.12459,0.58735 0.38483,1.13747 0.57724,1.70619 1.31596,2.70513 3.71401,3.74219 6.46814,4.38304 3.70594,1.03981 6.72819,3.72832 9.62787,6.13907 5.0206,4.13258 10.20029,8.06485 15.21192,12.20867 5.29069,4.37774 10.19032,9.17631 14.91872,14.14611 4.84328,5.1803 9.72521,10.32412 14.664,15.41346 4.28734,4.00182 8.49117,8.1059 12.91995,11.95244 2.97495,2.33138 5.96487,4.64209 9.41636,6.21628 2.56538,1.07355 5.32948,1.26402 8.07257,1.36602 3.10875,0.0386 6.21811,-0.0116 9.3268,-0.0426 4.56806,-0.0459 9.13628,-0.0246 13.70447,-0.0251 5.65552,0.16939 11.14721,1.71852 16.66279,2.84213 4.80679,0.96054 9.67304,1.51908 14.56476,1.76475 4.08755,-0.0338 8.16176,-0.52576 12.20189,-1.1171 4.35584,-0.68861 8.76028,-0.92631 13.16228,-1.06125 0.60468,0.0291 6.49904,-0.21666 6.65023,-0.53014 3.57587,-7.41468 3.83963,-6.08992 0.33517,-9.35244 -7.28451,-6.22337 -14.49477,-12.53241 -21.84389,-18.6799 -6.99831,-5.51749 -13.69804,-11.41368 -20.85684,-16.72455 -6.27383,-4.19444 -12.70159,-8.14269 -18.8849,-12.47725 -6.47978,-4.64531 -12.48138,-9.88478 -18.52332,-15.07066 -6.36188,-5.37848 -11.54898,-11.88993 -16.71579,-18.37376 -5.69474,-7.12089 -11.25797,-14.33782 -17.17697,-21.27556 -5.32982,-6.30055 -10.67178,-12.59727 -15.77594,-19.08329 -4.37313,-5.86264 -8.68508,-11.76956 -13.18228,-17.53878 -3.66411,-5.01667 -7.67913,-9.75388 -11.8441,-14.35739 -3.29594,-3.64935 -6.7792,-7.13422 -10.83627,-9.93098 -1.38647,-0.99801 -2.90603,-1.74969 -4.45032,-2.46124 0,0 -3.99672,6.99938 -3.99672,6.99938 v 0 c 1.31197,0.52873 2.58226,1.12269 3.73851,1.95401 3.80693,2.48158 6.94169,5.79927 10.0049,9.12708 4.10454,4.4966 8.01952,9.15726 11.63553,14.05912 4.5008,5.77777 8.84643,11.67015 13.22422,17.54059 5.16155,6.51647 10.60662,12.80263 15.94215,19.17618 5.89465,6.88519 11.40098,14.07641 17.08431,21.13467 5.33749,6.72952 10.70734,13.48209 17.30769,19.04371 6.16151,5.28079 12.3185,10.57026 18.89601,15.33694 6.14831,4.31406 12.48521,8.32871 18.76758,12.43835 7.10309,5.22939 13.8285,10.94513 20.74434,16.41589 7.28091,6.08886 14.42911,12.33784 21.43509,18.74136 2.71407,2.59152 0.29469,0.90827 4.42526,-4.75355 0.12031,-0.16492 0.58984,0.25323 0.45667,0.40793 -0.13031,0.15142 -2.25195,0.43807 -2.52418,0.45765 -0.67296,0.0484 -1.34913,0.0289 -2.02369,0.0434 -4.578,0.12973 -9.16461,0.28512 -13.70481,0.93406 -3.7634,0.55346 -7.53036,1.02068 -11.32543,1.31607 -4.66273,-0.15106 -9.31453,-0.54073 -13.90478,-1.41018 -5.82724,-1.13546 -11.57888,-2.82946 -17.52164,-3.23366 -4.57163,0.003 -9.1432,0.0295 -13.71483,0.009 -3.0616,-0.01 -6.12312,-0.003 -9.18472,0.003 -2.13828,-0.0143 -4.32049,0.0143 -6.38281,-0.62896 -3.08105,-1.19727 -5.60184,-3.36826 -8.25135,-5.29474 -4.34427,-3.73544 -8.50236,-7.68898 -12.65928,-11.62989 -4.94104,-5.05622 -9.83726,-10.15548 -14.64701,-15.33716 -4.84011,-5.12895 -9.89756,-10.03887 -15.33615,-14.53832 -5.00343,-4.13933 -10.1535,-8.0957 -15.15372,-12.23886 -3.51071,-2.9518 -7.1604,-6.03173 -11.57989,-7.49737 -0.86823,-0.14237 -2.17445,-0.0717 -2.58842,-0.95591 -0.68114,-3.66913 0.054,-7.51602 -0.22913,-11.21767 -0.0116,-5.70339 -0.0365,-11.40669 -0.0733,-17.10994 -0.0596,-11.08925 -0.10668,-22.17946 0.0502,-33.26815 0.14492,-9.79066 0.18585,-19.61189 1.17737,-29.36175 0,0 -7.71458,2.34389 -7.71458,2.34389 z"
         id="path940"
         style="opacity:1;fill:#ffffff;fill-opacity:1;stroke-width:0.264583" />
      <path
         d="m 744.53349,224.47772 c 4.20021,5.45327 9.02263,10.35288 14.03503,15.05148 6.29735,5.5896 12.80163,10.96964 19.81563,15.63909 4.83777,2.93504 9.41951,6.25159 13.7604,9.87548 4.34871,3.6447 7.58488,8.38609 10.88024,12.95513 3.37185,4.57745 6.45388,9.37148 10.12804,13.71721 2.74736,3.23438 6.29645,4.61087 10.40548,5.06003 3.90369,0.071 7.80463,-0.2857 11.67876,-0.73308 5.23666,-0.68713 10.51285,-0.89131 15.78713,-1.01852 6.58863,-0.13052 13.17864,-0.0589 19.76787,-0.0765 6.59183,-0.19841 13.16699,0.21493 19.73742,0.68199 1.77075,0.0251 6.89215,0.87101 8.26905,-0.62531 4.66391,-5.06847 4.07759,-4.57004 4.26587,-9.41173 -0.10197,-8.71001 -0.42563,-17.41566 -0.60097,-26.12462 -0.18135,-9.90893 -0.23707,-19.81874 -0.19005,-29.72903 -0.29546,-3.92194 0.19587,-9.20188 -3.13844,-12.08177 -0.52445,-0.453 -1.17454,-0.73589 -1.76183,-1.10383 -4.19698,-1.5178 -8.79967,-1.06998 -13.18937,-1.02742 -6.1681,0.2571 -12.31699,-0.28622 -18.46012,-0.75864 -8.47277,-0.88405 -16.93076,-1.79297 -25.4428,-2.18338 -9.1589,0.0282 -18.26702,-0.7642 -27.3847,-1.51131 -8.65404,-0.70122 -17.33452,-0.93758 -26.01182,-1.12377 -4.80536,-0.11746 -9.61199,-0.13398 -14.41847,-0.15283 -3.57886,-0.30361 -6.88049,0.32884 -10.2154,1.57718 -3.18926,1.31436 -6.19805,2.99429 -9.18266,4.70968 0,0 0.43461,8.054 0.43461,8.054 v 0 c 2.72256,-1.73412 5.52347,-3.32503 8.41986,-4.752 2.76574,-1.22596 5.29013,-2.22616 8.39203,-1.86073 4.79552,-0.0306 9.59125,-0.0462 14.38685,-0.0286 8.58761,0.0827 17.1781,0.28788 25.74337,0.95119 9.16835,0.74021 18.32036,1.65354 27.5317,1.60341 8.45449,0.37707 16.87727,1.12972 25.28297,2.11592 6.26351,0.54942 12.53617,1.33932 18.83558,1.0428 3.64766,-0.0472 7.3152,-0.15973 10.95254,0.16067 0.22619,0.0394 0.61447,0.0315 0.75033,0.30239 1.32485,2.64192 0.82688,5.99906 1.15948,8.8006 0.0975,9.92917 0.0881,19.85908 0.2658,29.78726 0.1683,8.52711 0.61606,17.07182 0.21836,25.59463 -0.15499,0.66064 -1.10175,2.21644 -0.465,1.98189 1.24552,-0.45876 1.68743,-2.10317 2.79209,-2.83906 0.23649,-0.15756 0.40286,0.58227 0.24294,0.81717 -0.49,0.71985 -4.46778,0.23846 -5.05097,0.25336 -6.67446,-0.3892 -13.34831,-0.87958 -20.0392,-0.74427 -6.62003,-0.0185 -13.24001,0.0548 -19.85986,0.0954 -5.41518,0.0606 -10.8394,0.0914 -16.21883,0.80301 -3.6104,0.4272 -7.21791,0.73062 -10.85204,0.88609 -2.89706,0.0539 -5.22036,-0.74223 -7.15698,-2.99619 -3.61601,-4.23254 -6.61736,-8.94371 -9.93206,-13.40883 -3.56868,-4.86298 -7.03128,-9.94134 -11.69839,-13.83166 -4.51345,-3.69193 -9.25955,-7.08485 -14.22901,-10.14006 -6.86249,-4.39157 -13.17511,-9.58211 -19.23803,-15.01261 -4.75295,-4.54055 -9.36237,-9.2645 -13.18538,-14.63518 0,0 -6.01705,5.3939 -6.01705,5.3939 z"
         id="path942"
         style="opacity:1;fill:#ffffff;fill-opacity:1;stroke-width:0.264583" />
      <path
         style="opacity:1;fill:#ffffff;fill-opacity:1;stroke-width:0.264583"
         id="path1099"
         d="m 302.70491,334.95675 c 0.18878,9.2257 0.16732,18.45461 0.15608,27.68185 -0.0353,8.427 -0.0492,16.85382 -0.0559,25.28085 -0.0334,6.89399 -0.0236,13.788 -0.0154,20.68203 0.0159,7.86482 0.0204,15.72961 0.0228,23.59443 0.004,7.81005 0.003,15.62002 -0.0254,23.43002 -0.0277,4.88641 -0.044,9.77286 -0.0713,14.65927 -0.13287,4.16271 -0.20002,6.04575 3.63567,8.46447 2.79548,1.25931 5.8647,1.20457 8.86563,1.21814 4.40529,0.0167 8.8002,-0.0214 13.1922,-0.37671 5.6967,-0.5683 11.42524,-0.59937 17.13458,-0.94645 4.94691,-0.4569 9.90531,-0.7552 14.84281,-1.30677 3.87575,-0.51459 7.78867,-0.63484 11.65786,-1.19026 2.67086,-0.39327 5.33355,-0.76403 7.96927,-1.35215 4.4476,-0.85183 6.56884,-2.74987 9.07008,-6.97415 0.35748,-0.60375 0.18981,-1.39039 0.28472,-2.08561 0.2531,-8.03547 0.80406,-16.05515 1.38117,-24.07438 0.61706,-8.33856 1.0582,-16.68714 1.23431,-25.04646 -0.0175,-6.0483 0.33123,-12.1112 -0.0789,-18.14987 -0.52946,-4.30434 -0.5234,-8.66261 -1.09966,-12.95685 -0.49864,-3.01109 -0.845,-6.03869 -0.98179,-9.08712 0.25315,-1.33543 -0.69713,-3.44516 0.22556,-4.62237 0.24074,-0.30718 0.78467,-0.36698 1.11834,-0.4418 -0.97915,1.13913 -1.96014,2.27668 -2.93746,3.41738 -0.30292,0.35359 -0.0516,-0.36624 0.98309,-0.6572 1.35511,-0.38108 2.98838,-0.0698 4.35218,0.0193 5.71328,0.33705 11.41262,0.616 17.11097,1.16848 7.15447,0.87571 14.28589,1.89145 21.32844,3.43328 4.06032,0.98322 8.1848,1.64738 12.34913,1.95681 3.39109,0.18814 6.78995,0.15875 10.18506,0.1647 5.63213,0.0217 6.51888,0.13954 9.63996,-6.65808 0.33163,-0.72223 -0.16753,-1.58062 -0.2513,-2.37093 -1.01664,-5.80224 -1.71821,-11.64595 -2.13059,-17.52026 -0.1267,-5.52977 -0.50456,-11.03077 -0.96763,-16.54064 -0.3906,-4.04921 -1.40414,-7.78722 -3.70824,-11.15227 -2.14379,-2.54904 -4.95639,-4.37279 -7.42371,-6.57301 -3.50726,-3.04962 -6.00688,-6.965 -8.36186,-10.91891 -3.07801,-4.74998 -6.11473,-9.50193 -8.6768,-14.55433 -2.73735,-5.31492 -5.35472,-10.68125 -7.87072,-16.10622 -2.02917,-4.86278 -4.15356,-9.68245 -6.39106,-14.45276 -2.64533,-5.26947 -5.42317,-10.48829 -7.73758,-15.91408 -1.78666,-4.90521 -4.23387,-9.52134 -6.29423,-14.30408 -1.6533,-3.96558 -3.58664,-7.8213 -5.64563,-11.59174 -1.8624,-3.54439 -4.70593,-6.26259 -7.79671,-8.72456 -2.71071,-1.98464 -5.61332,-3.61961 -8.78462,-4.7217 -3.92919,-1.0741 -8.02828,-1.21103 -12.07614,-1.35051 -3.67993,-0.0912 -7.36174,-0.041 -11.04233,-0.0238 -5.06148,0.31136 -10.10787,0.77237 -15.17615,0.99566 -6.37387,0.24622 -12.75398,0.2513 -19.13165,0.27283 -5.66389,0.023 -11.32772,-0.0188 -16.99147,-0.0517 -4.23772,-0.22135 -8.36477,0.51877 -12.43602,1.60533 -4.58893,1.30175 -7.33494,2.59581 -9.61462,7.68988 -0.53043,1.18531 1.38796,4.0282 1.87373,4.87503 3.06848,3.86514 6.9483,6.99169 10.72227,10.13682 4.80457,4.03228 8.47069,9.1105 12.27576,14.03702 4.20431,5.41718 8.6826,10.61908 12.78882,16.11109 4.5035,6.27742 8.9833,12.57032 13.37194,18.92871 4.90453,7.17487 8.87468,14.92938 12.7803,22.67762 2.92317,6.12582 6.12278,12.11086 9.27161,18.12193 1.78782,4.27836 5.09095,7.54483 7.64635,11.30638 0.003,0.12293 0.0912,0.45651 0.005,0.36878 -2.38109,-2.4262 0.0948,-2.23145 2.51881,-5.65306 0.12083,-0.17055 -0.35719,0.2337 -0.56095,0.28032 -0.93466,0.21379 -2.72608,0.24384 -3.57293,0.28379 -6.81916,0 -13.61599,0.0647 -20.42107,0.53515 -7.64133,0.72374 -15.31686,1.02407 -22.96157,1.6881 -4.0807,0.29548 -8.08104,1.14673 -12.11281,1.78712 -0.48739,0.0675 -0.97476,0.13491 -1.46215,0.20236 0,0 -1.56702,8.04494 -1.56702,8.04494 v 0 c 0.52041,-0.0675 1.04082,-0.13509 1.56123,-0.20264 3.97346,-0.59505 7.88604,-1.50895 11.88548,-1.92794 7.58529,-0.89617 15.24455,-1.13652 22.84402,-1.90865 6.71989,-0.44508 13.42924,-0.47106 20.16162,-0.35179 0.61838,-0.003 5.66132,0.13946 6.06724,-0.16984 4.43323,-3.37801 6.20726,-4.44738 3.70591,-8.49005 -2.65366,-3.409 -5.51225,-6.65298 -7.3085,-10.64816 -3.16175,-5.9741 -6.32677,-11.94586 -9.30953,-18.0123 -4.06566,-7.90001 -8.16393,-15.81915 -13.17506,-23.17197 -4.41944,-6.41768 -8.92206,-12.77591 -13.47475,-19.09977 -4.14576,-5.48862 -8.56919,-10.76156 -12.80125,-16.18403 -4.01498,-5.20401 -7.98031,-10.48896 -13.00385,-14.78971 -3.28584,-2.76444 -6.69634,-5.49283 -9.38006,-8.86849 -0.86244,-1.91825 0.63211,-1.85647 -3.52211,2.63681 -0.26543,0.2871 0.56369,-0.54761 0.88704,-0.76745 1.05635,-0.71818 1.77398,-0.90196 2.98683,-1.36514 3.64329,-1.05056 7.29694,-2.08942 11.13925,-1.8701 5.67767,-0.0259 11.35536,-0.0581 17.03313,-0.0488 6.43343,-0.005 12.86759,-0.0161 19.29953,-0.17134 5.00184,-0.19095 10.00009,-0.45133 14.9788,-0.98618 3.63451,0 7.26906,-0.005 10.90354,0.0161 3.59764,0.057 7.23027,0.11072 10.76526,0.84989 2.67007,0.76647 5.01898,2.21538 7.30477,3.77314 2.59324,2.04423 4.93104,4.2898 6.4235,7.29486 1.96292,3.6781 3.87184,7.39558 5.45704,11.25453 2.14849,4.73723 4.4423,9.40681 6.31885,14.2653 2.43274,5.41742 5.17769,10.6881 7.78153,16.02454 2.21816,4.77308 4.29924,9.60538 6.42554,14.4196 2.55611,5.47992 5.20523,10.90796 7.97856,16.28098 2.68941,5.09778 5.73673,9.96609 8.84513,14.81635 2.64284,4.35118 5.4895,8.61216 9.33725,12.00923 2.15641,1.92846 4.55851,3.59058 6.50825,5.73836 1.74186,2.69965 2.14929,5.86811 2.4956,9.01279 0.48451,5.48799 0.70649,10.97979 0.98933,16.48066 0.47884,5.80009 1.36729,11.54536 1.94244,17.33267 -0.0518,0.43272 -0.50131,1.56345 -0.15552,1.29818 1.44864,-1.11139 2.42453,-2.73344 3.71284,-4.02728 0.10007,-0.10049 -0.0148,0.30676 -0.11152,0.41053 -0.69437,0.74541 -2.20557,0.39481 -3.03144,0.48845 -3.29522,0.0196 -6.59167,0.0408 -9.88568,-0.0682 -3.94123,-0.19119 -7.8569,-0.69022 -11.70373,-1.59025 -7.22855,-1.53348 -14.51817,-2.60213 -21.8517,-3.51269 -2.60432,-0.29459 -5.19832,-0.69001 -7.81011,-0.90845 -3.11081,-0.26014 -6.26038,-0.11006 -9.36558,-0.49937 -1.73382,-0.15013 -7.4076,-0.96367 -8.78687,0.1833 -1.61494,1.34295 -2.93817,3.00218 -4.40724,4.50326 -1.08945,2.74577 -0.89234,5.57954 -0.68101,8.48246 0.23182,3.12323 0.69527,6.21573 1.13538,9.31516 0.39833,4.21466 0.63103,8.4459 1.03928,12.66058 0.23609,5.92209 0.0602,11.85434 0.0143,17.77902 -0.18804,8.26159 -0.53176,16.51968 -1.15999,24.76069 -0.0421,0.55684 -0.72401,9.55421 -0.76936,10.20649 -0.2614,3.76065 -0.30612,7.59851 -0.81552,11.33871 -0.0779,0.57209 -0.24622,1.12819 -0.36936,1.69228 -1.56683,2.11632 0.62579,-0.8776 2.34043,-2.63522 0.1566,-0.16055 -0.13126,0.43145 -0.23416,0.63071 -0.45474,0.88061 -1.34366,1.0532 -2.21909,1.35157 -2.57167,0.53496 -5.09084,1.18332 -7.71845,1.42952 -3.79518,0.68048 -7.62902,0.83047 -11.4554,1.30722 -4.87802,0.57402 -9.76934,0.88517 -14.65731,1.37131 -5.70814,0.50591 -11.4573,0.40429 -17.16873,0.91787 -4.25333,0.3569 -8.49492,0.51565 -12.76636,0.40807 -2.20604,-0.007 -4.4292,0.053 -6.61783,-0.26993 -0.11428,-0.0228 -0.22874,-0.0918 -0.34282,-0.0681 -0.0457,0.01 0.007,0.18531 -0.003,0.13988 -0.337,-1.43877 0.0908,-3.00463 -0.0992,-4.45545 -0.0272,-4.86873 -0.0436,-9.73751 -0.0713,-14.60624 -0.0269,-7.8037 -0.0292,-15.60738 -0.0254,-23.4111 0.003,-7.87048 0.007,-15.74094 0.0228,-23.61142 0.008,-6.89022 0.018,-13.7804 -0.0154,-20.67057 -0.007,-8.4132 -0.0206,-16.82615 -0.0559,-25.23932 -0.0114,-9.26592 -0.0317,-18.53348 0.15605,-27.79792 0,0 -7.67866,2.85568 -7.67866,2.85568 z" />
    </g>
  </g>
</svg>
